# xmcd CD database file
#
# Track frame offsets:
#	182
#	9890
#	27260
#	38012
#	58195
#	82870
#	104150
#	129357
#	149407
#	166820
#	184000
#	203437
#	217492
#	233532
#	255252
#	271320
#
# Disc length: 3869 seconds
#
# Revision: 5
# Processed by: cddbd v1.5.2PL0 Copyright (c) Steve Scherf et al.
# Submitted via: CDex 1.70beta2
#
DISCID=d10f1b10
DTITLE=Buena Vista Social Club - Salsa Grooves
DYEAR=2000
DGENRE=Salsa
TTITLE0=Perez Prado y Su Orchesta - Mambo No. 5
TTITLE1=Ibrahim Ferrer - La Chica del Granizado
TTITLE2=Compay Segundo - Te Apartas de Mi
TTITLE3=Tito Puente - Oye como Va
TTITLE4=Fania All Stars - Bamboleo
TTITLE5=Ruben Blades - La Maleta
TTITLE6=Willie Colón - Juan Peña
TTITLE7=Ray Barretto - Quítate la Másquera
TTITLE8=Ruben González - Fabiando
TTITLE9=Eliades Ochoa - Qué Lio Compay Andrés
TTITLE10=Ángel Canales - Sabor los Rumberos Nuevos
TTITLE11=Raúl Planas - Rumberos del Ayer
TTITLE12=Omara Portuondo - Mucho Corazón
TTITLE13=Celia Cruz - Quimbara
TTITLE14=Suco e Sol - Ylarie (Airplay)
TTITLE15=Mecano - Bailando Salsa
EXTD=YEAR: 2000
EXTT0=
EXTT1=
EXTT2=
EXTT3=
EXTT4=
EXTT5=
EXTT6=
EXTT7=
EXTT8=
EXTT9=
EXTT10=
EXTT11=
EXTT12=
EXTT13=
EXTT14=
EXTT15=
PLAYORDER=
